# Blender v2.79 (sub 0) OBJ File: ''
# www.blender.org
mtllib dummy2.mtl
o Plane001_Untitled
v -0.670984 0.000000 0.695255
v -0.315725 0.000000 0.695255
v 0.039534 0.000000 0.695255
v 0.394794 0.000000 0.695255
v 0.750053 0.000000 0.695255
v -0.670984 0.000000 0.349169
v -0.315725 0.000000 0.349169
v 0.039534 0.000000 0.349169
v 0.394794 0.000000 0.349169
v 0.750053 0.000000 0.349169
v -0.670984 0.000000 0.003083
v -0.315725 0.000000 0.003083
v 0.039534 0.000000 0.003083
v 0.394794 0.000000 0.003083
v 0.750053 0.000000 0.003083
v -0.670984 -0.000000 -0.343003
v -0.315725 -0.000000 -0.343003
v 0.039534 -0.000000 -0.343003
v 0.394794 -0.000000 -0.343003
v 0.750053 -0.000000 -0.343003
v -0.670984 -0.000000 -0.689088
v -0.315725 -0.000000 -0.689088
v 0.039534 -0.000000 -0.689088
v 0.394794 -0.000000 -0.689088
v 0.750053 -0.000000 -0.689088
vt 0.000000 0.250000
vt 0.000000 0.000000
vt 0.250000 0.250000
vt 0.250000 0.000000
vt 0.500000 0.250000
vt 0.500000 0.000000
vt 0.750000 0.250000
vt 0.750000 0.000000
vt 1.000000 0.250000
vt 1.000000 0.000000
vt 0.000000 0.500000
vt 0.250000 0.500000
vt 0.500000 0.500000
vt 0.750000 0.500000
vt 1.000000 0.500000
vt 0.000000 0.750000
vt 0.250000 0.750000
vt 0.500000 0.750000
vt 0.750000 0.750000
vt 1.000000 0.750000
vt 0.000000 1.000000
vt 0.250000 1.000000
vt 0.500000 1.000000
vt 0.750000 1.000000
vt 1.000000 1.000000
vn 0.0000 1.0000 -0.0000
usemtl baked_Material_#70
s 1
f 6/1/1 1/2/1 7/3/1
f 2/4/1 7/3/1 1/2/1
f 7/3/1 2/4/1 8/5/1
f 3/6/1 8/5/1 2/4/1
f 8/5/1 3/6/1 9/7/1
f 4/8/1 9/7/1 3/6/1
f 9/7/1 4/8/1 10/9/1
f 5/10/1 10/9/1 4/8/1
f 11/11/1 6/1/1 12/12/1
f 7/3/1 12/12/1 6/1/1
f 12/12/1 7/3/1 13/13/1
f 8/5/1 13/13/1 7/3/1
f 13/13/1 8/5/1 14/14/1
f 9/7/1 14/14/1 8/5/1
f 14/14/1 9/7/1 15/15/1
f 10/9/1 15/15/1 9/7/1
f 16/16/1 11/11/1 17/17/1
f 12/12/1 17/17/1 11/11/1
f 17/17/1 12/12/1 18/18/1
f 13/13/1 18/18/1 12/12/1
f 18/18/1 13/13/1 19/19/1
f 14/14/1 19/19/1 13/13/1
f 19/19/1 14/14/1 20/20/1
f 15/15/1 20/20/1 14/14/1
f 21/21/1 16/16/1 22/22/1
f 17/17/1 22/22/1 16/16/1
f 22/22/1 17/17/1 23/23/1
f 18/18/1 23/23/1 17/17/1
f 23/23/1 18/18/1 24/24/1
f 19/19/1 24/24/1 18/18/1
f 24/24/1 19/19/1 25/25/1
f 20/20/1 25/25/1 19/19/1
